<svg xmlns="http://www.w3.org/2000/svg" xmlns:xlink="http://www.w3.org/1999/xlink" width="52" height="104" viewBox="0 0 52 104"><svg width="52" height="52" viewBox="-10 -10 52 52" id="envelope" y="0"><path stroke="#449FDB" d="M0 0"/><path d="M29 4H3C1.35 4 0 5.35 0 7v20c0 1.65 1.35 3 3 3h26c1.65 0 3-1.35 3-3V7c0-1.65-1.35-3-3-3zM12.46 17.2L4 23.79V8.112l8.46 9.086zM5.513 8h20.976L16 15.875 5.512 8zm7.278 9.553L16 21l3.21-3.447L25.79 26H6.21l6.58-8.447zm6.75-.354L28 8.112V23.79l-8.46-6.59z"/></svg><svg width="52" height="52" viewBox="-10 -10 52 52" id="file" y="52"><path stroke="#449FDB" d="M0 0"/><path d="M27.88 5.88L24.12 2.12c-1.167-1.167-3.47-2.12-5.12-2.12H5C3.35 0 2 1.35 2 3v26c0 1.65 1.35 3 3 3h22c1.65 0 3-1.35 3-3V11c0-1.65-.956-3.956-2.122-5.122zM20 4.235c.07.025.14.053.21.082.565.234.957.505 1.083.63l3.757 3.758c.126.126.397.517.63 1.082.03.072.058.143.083.21H20V4.236zM26 28H6V4h12v8h8v16z"/></svg></svg>